Coordinates
version=1
nRows=11
nColumns=26
inDegrees=yes

Units are S.I. units (second, meters, Newtons, ...)
Angles are in degrees.

endheader
time	pelvis_tilt	pelvis_list	pelvis_rotation	pelvis_tx	pelvis_ty	pelvis_tz	hip_flexion_r	hip_adduction_r	hip_rotation_r	knee_angle_r	knee_angle_r_beta	ankle_angle_r	subtalar_angle_r	mtp_angle_r	hip_flexion_l	hip_adduction_l	hip_rotation_l	knee_angle_l	knee_angle_l_beta	ankle_angle_l	subtalar_angle_l	mtp_angle_l	lumbar_extension	lumbar_bending	lumbar_rotation
      0.00000000	      5.60210484	     -3.35978401	     -4.42771760	      0.14322865	      0.98360733	      0.24894755	    -18.64768824	      4.51012151	     -2.33123083	     10.15576395	     10.15576395	     13.86925411	      0.00000000	      0.00000000	     22.11231590	     -5.31043234	    -14.66434441	     14.55243178	     14.55243178	      0.05296826	      0.00000000	      0.00000000	    -20.47263925	      3.38801800	      9.03878164
      0.00833333	      5.74780450	     -3.35859693	     -4.92135918	      0.15346269	      0.98312724	      0.24921369	    -19.26969057	      4.21656499	     -2.07379702	     10.46092135	     10.46092135	     13.72172073	      0.00000000	      0.00000000	     21.55620619	     -5.26439676	    -14.81349003	     14.97374096	     14.97374096	     -0.07528161	      0.00000000	      0.00000000	    -20.48236108	      3.12675374	      9.39798842
      0.01666667	      5.94902746	     -3.32038971	     -5.47234669	      0.16385364	      0.98292663	      0.24938428	    -19.87186189	      3.83144001	     -1.83621051	     10.91116309	     10.91116309	     13.56432482	      0.00000000	      0.00000000	     20.54427325	     -5.05101345	    -15.00347660	     14.51058784	     14.51058784	     -0.95363957	      0.00000000	      0.00000000	    -20.52501342	      2.81129863	      9.74234473
      0.02500000	      5.96254167	     -3.27184856	     -5.88573285	      0.17422991	      0.98242733	      0.24924745	    -20.15062425	      3.47259739	     -1.70925704	     11.56267672	     11.56267672	     13.38857324	      0.00000000	      0.00000000	     19.95725144	     -4.83762194	    -14.73780303	     14.36230144	     14.36230144	     -2.32457208	      0.00000000	      0.00000000	    -20.33037687	      2.55413754	      9.89290160
      0.03333333	      5.97254247	     -3.29586074	     -6.23721725	      0.18459602	      0.98213586	      0.24897051	    -20.34511815	      3.18717877	     -1.66239376	     12.36720791	     12.36720791	     13.13384582	      0.00000000	      0.00000000	     19.36634393	     -4.71550792	    -14.38632763	     14.14152790	     14.14152790	     -3.77847285	      0.00000000	      0.00000000	    -20.12781064	      2.39520408	      9.97546098
      0.04166667	      5.94064435	     -3.26646995	     -6.53852473	      0.19501682	      0.98194431	      0.24870959	    -20.34000792	      2.85192223	     -1.64380189	     13.44924175	     13.44924175	     12.86793678	      0.00000000	      0.00000000	     18.87114536	     -4.60047492	    -14.09168348	     14.05920646	     14.05920646	     -5.10146128	      0.00000000	      0.00000000	    -19.87049548	      2.17859731	      9.98244492
      0.05000000	      5.91051685	     -3.25096882	     -6.78934306	      0.20539022	      0.98194259	      0.24844328	    -20.20038907	      2.54853190	     -1.65555015	     14.75064587	     14.75064587	     12.54937368	      0.00000000	      0.00000000	     18.53704721	     -4.59219848	    -13.96341047	     14.39036283	     14.39036283	     -5.73613943	      0.00000000	      0.00000000	    -19.62371419	      1.97483510	      9.90763597
      0.05833333	      5.93982886	     -3.14814526	     -6.94214747	      0.21580060	      0.98229162	      0.24811657	    -20.00110871	      2.15891251	     -1.75365283	     16.26104905	     16.26104905	     12.13681636	      0.00000000	      0.00000000	     18.11026951	     -4.51446802	    -13.86008256	     14.84325179	     14.84325179	     -5.75333444	      0.00000000	      0.00000000	    -19.43003894	      1.66643476	      9.75561667
      0.06666667	      5.91677013	     -3.02686152	     -7.05145606	      0.22601020	      0.98286159	      0.24781120	    -19.53953833	      1.76105327	     -1.86610761	     18.07586898	     18.07586898	     11.61956586	      0.00000000	      0.00000000	     17.92558105	     -4.46641696	    -13.68268170	     15.72456871	     15.72456871	     -5.29549203	      0.00000000	      0.00000000	    -19.20931215	      1.33504800	      9.58189408
      0.07500000	      5.91367212	     -2.79135745	     -7.08109162	      0.23612373	      0.98370989	      0.24732010	    -18.88252353	      1.23541675	     -2.03614485	     20.22762067	     20.22762067	     11.04153389	      0.00000000	      0.00000000	     17.83246292	     -4.23681486	    -13.29684572	     16.78385679	     16.78385679	     -4.51120682	      0.00000000	      0.00000000	    -19.02714606	      0.90769999	      9.32350674
      0.08333333	      6.01646781	     -2.51242534	     -7.05432226	      0.24620400	      0.98494116	      0.24675857	    -18.18018076	      0.65011163	     -2.19885732	     22.61973932	     22.61973932	     10.28658695	      0.00000000	      0.00000000	     17.61323874	     -3.92488568	    -12.93643502	     17.86108957	     17.86108957	     -3.54080367	      0.00000000	      0.00000000	    -18.97334370	      0.43320149	      9.04456557
